<svg id="Layer_1" data-name="Layer 1" xmlns="http://www.w3.org/2000/svg" viewBox="0 0 478.83 470.62"><defs><style>.cls-1{fill:#005a3c;}</style></defs><title>Artboard 2</title><path class="cls-1" d="M459.14,74.15c-56.86,0-137.18,4.76-178.22,45.78-17.77,17.77-26.65,46.74-24.34,79.53a10.67,10.67,0,0,0,18.77,6.17c22.83-26.86,51.2-48.39,84.39-64a12.1,12.1,0,0,1,9.18-.38,10.1,10.1,0,0,1,5.84,5.09c2.26,4.78,1.54,11.08-6,14.62-.43.21-.81.49-1.24.68-.15.06-.32,0-.45.11-81.79,38.44-122,105.51-140.26,174.48-13.32-86.35-41.43-137.19-68-168.4-19.22-24.92-38.13-38.13-49-45.59-2-1.39-8.15-5.57-10.69-8.11a10.67,10.67,0,0,1,0-15.08c4.16-4.14,11-4.14,15.58.47a53.42,53.42,0,0,0,5.25,3.82l1.89,1.28c15.45,10.58,44.21,30.23,69.72,72.53a10.68,10.68,0,0,0,19.61-3.46c5.57-28.43,3.07-70.63-22.3-96C147.82,36.71,67.5,32,10.67,32A10.67,10.67,0,0,0,0,42.62C0,99.47,4.76,179.79,45.78,220.84c17.11,17.11,43.5,24.79,69.72,24.79,21.4,0,42.37-5.36,58.43-14.64,21.91,45.4,39.4,113.22,39.4,217a10.67,10.67,0,0,0,21.34,0c0-57.87,9.92-127.34,46.8-184.51,14.79,14.44,40.24,23.6,68.44,24.45,1.41,0,2.79.06,4.18.06,28.65,0,54-9,69.91-24.94,41-41,45.78-121.36,45.78-178.22A10.6,10.6,0,0,0,459.14,74.15Z"/></svg>