<svg id="Layer_1" data-name="Layer 1" xmlns="http://www.w3.org/2000/svg" viewBox="0 0 2288.1 583.63"><defs><style>.cls-1,.cls-2{fill:#005a3c;}.cls-2{font-size:500px;font-family:FredokaOne-Regular, Fredoka One;}</style></defs><title>Artboard 1</title><path class="cls-1" d="M459.14,63.75c-56.86,0-137.18,4.76-178.22,45.79-17.77,17.77-26.65,46.74-24.34,79.53a10.67,10.67,0,0,0,18.77,6.16c22.83-26.86,51.2-48.38,84.39-64a12.1,12.1,0,0,1,9.18-.38,10.09,10.09,0,0,1,5.84,5.1c2.26,4.78,1.54,11.07-6,14.61-.43.21-.81.49-1.24.68-.15.07-.32.05-.45.11-81.79,38.44-122,105.52-140.26,174.49-13.32-86.36-41.43-137.2-68-168.41-19.22-24.92-38.13-38.12-49-45.59-2-1.38-8.15-5.57-10.69-8.1a10.68,10.68,0,0,1,0-15.09c4.16-4.14,11-4.14,15.58.47A53.42,53.42,0,0,0,119.94,93l1.89,1.28c15.45,10.58,44.21,30.23,69.72,72.53a10.67,10.67,0,0,0,19.61-3.45c5.57-28.44,3.07-70.64-22.3-96-41-41-121.36-45.76-178.19-45.76A10.67,10.67,0,0,0,0,32.22C0,89.08,4.76,169.4,45.78,210.44c17.11,17.11,43.5,24.79,69.72,24.79,21.4,0,42.37-5.35,58.43-14.63,21.91,45.39,39.4,113.21,39.4,217a10.67,10.67,0,0,0,21.34,0c0-57.88,9.92-127.34,46.8-184.52,14.79,14.45,40.24,23.6,68.44,24.45,1.41.05,2.79.07,4.18.07,28.65,0,54-9,69.91-24.94,41-41.05,45.78-121.37,45.78-178.22A10.61,10.61,0,0,0,459.14,63.75Z"/><text class="cls-2" transform="translate(676.44 448.22)">haplor</text></svg>